# xmcd
#
# Track frame offsets: 
#        151
#        12890
#        30686
#        49213
#        60512
#        77304
#        89812
#        104887
#        121802
#        134558
#        153851
#        167784
#        192004
#        203918
#        219860
#        233550
#        255069
#        271788
#        290888
#        304324
#
# Disc length: 4279 seconds
#
# Revision: 2
# Processed by: cddbd v1.5.2PL0 Copyright (c) Steve Scherf et al.
# Submitted via: ExactAudioCopyFreeDBPlugin 1.0
#
DISCID=1110b514
DTITLE=林子祥 - SACD
DYEAR=1900
DGENRE=Country
TTITLE0=抉择
TTITLE1=我要走天涯
TTITLE2=沙漠小子
TTITLE3=一个人
TTITLE4=在水中央
TTITLE5=活色生香
TTITLE6=究竟天有几高
TTITLE7=草原是我家
TTITLE8=七月初七
TTITLE9=你在何方
TTITLE10=画家
TTITLE11=她的歌声
TTITLE12=不要离去
TTITLE13=想你
TTITLE14=分分钟需要你
TTITLE15=三人行
TTITLE16=几段情歌
TTITLE17=美丽的小姑娘
TTITLE18=成吉思汗
TTITLE19=亚里巴巴
EXTD=
EXTT0=
EXTT1=
EXTT2=
EXTT3=
EXTT4=
EXTT5=
EXTT6=
EXTT7=
EXTT8=
EXTT9=
EXTT10=
EXTT11=
EXTT12=
EXTT13=
EXTT14=
EXTT15=
EXTT16=
EXTT17=
EXTT18=
EXTT19=
PLAYORDER=
